<svg id="Group_2061" data-name="Group 2061" xmlns="http://www.w3.org/2000/svg" width="40.444" height="36.661" viewBox="0 0 40.444 36.661">
  <path id="Path_13486" data-name="Path 13486" d="M47,83.623c.064-.211.118-.424.194-.632a3.7,3.7,0,0,1,3.558-2.32c.932-.01,1.863-.008,2.8,0a.546.546,0,0,0,.511-.252A5.058,5.058,0,0,1,58.385,78.3c2.061,0,4.122.009,6.183-.008a1.706,1.706,0,0,0,.784-.2q6.991-3.935,13.966-7.9a1.475,1.475,0,0,1,1.509-.128,1.232,1.232,0,0,1,.647,1.229q-.007,15.452,0,30.9a1.235,1.235,0,0,1-.655,1.226,1.458,1.458,0,0,1-1.474-.114Q72.786,99.7,66.218,96.1c-.121-.066-.243-.131-.411-.221-.089.134-.177.26-.258.391l-5.858,9.375c-.071.113-.141.226-.217.335a1.3,1.3,0,0,1-1.728.429q-2.795-1.427-5.57-2.887a1.115,1.115,0,0,1-.421-1.751q2.036-3.269,4.081-6.532c.077-.124.153-.249.233-.38-.373-.264-.764-.5-1.1-.788a5.825,5.825,0,0,1-.875-.948.692.692,0,0,0-.654-.309c-.96.012-1.922.032-2.879-.016a3.545,3.545,0,0,1-3.49-2.735A1.4,1.4,0,0,0,47,89.882ZM78.921,73.206c-.115.052-.178.074-.236.107q-5.918,3.347-11.828,6.7a.577.577,0,0,0-.234.437c-.012,4.277-.008,8.554-.014,12.83a.464.464,0,0,0,.287.464q5.861,3.2,11.714,6.423a2.975,2.975,0,0,0,.311.126ZM64.045,80.653H58.483a2.483,2.483,0,0,0-2.75,2.542q-.009,3.558,0,7.115a2.847,2.847,0,0,0,3,2.776c1.594.007,3.189,0,4.783,0h.528ZM57.9,103.808l5.232-8.373c-1.436,0-2.788.007-4.14-.006a.525.525,0,0,0-.526.281c-1.188,1.921-2.389,3.834-3.587,5.75-.118.19-.235.38-.365.592ZM53.156,90.447V83.024c-.863,0-1.694-.023-2.523.008a1.042,1.042,0,0,0-1.083,1q-.024,2.716,0,5.433a.987.987,0,0,0,.971.969C51.392,90.476,52.265,90.447,53.156,90.447Z" transform="translate(-47 -69.914)" fill="#2b2b2b"/>
  <path id="Path_13487" data-name="Path 13487" d="M377.849,221.552c-.389,0-.778,0-1.167,0a.912.912,0,0,1-.953-.917.9.9,0,0,1,.946-.887q1.182,0,2.364,0a.888.888,0,0,1,.949.88.9.9,0,0,1-.942.924h-1.2Z" transform="translate(-339.544 -203.88)" fill="#2b2b2b"/>
  <path id="Path_13488" data-name="Path 13488" d="M368.42,141.015a1.05,1.05,0,0,1,1.044.586.909.909,0,0,1-.138,1.07q-1.058,1.111-2.169,2.171a.976.976,0,0,1-1.372-.057,1,1,0,0,1-.031-1.376q1.04-1.082,2.126-2.119A1.8,1.8,0,0,1,368.42,141.015Z" transform="translate(-330.035 -134.104)" fill="#2b2b2b"/>
  <path id="Path_13489" data-name="Path 13489" d="M369.562,278.686a1.073,1.073,0,0,1-.585,1.02.923.923,0,0,1-1.1-.147q-1.1-1.048-2.145-2.145A1,1,0,0,1,367.152,276q1.1,1.048,2.142,2.148A1.8,1.8,0,0,1,369.562,278.686Z" transform="translate(-330.022 -253.206)" fill="#2b2b2b"/>
</svg>
