<svg xmlns="http://www.w3.org/2000/svg" width="41.171" height="41.113" viewBox="0 0 41.171 41.113">
  <g id="Group_1966" data-name="Group 1966" transform="translate(0.558 0.556)">
    <path id="Path_13418" data-name="Path 13418" d="M30.82,53.351a8.416,8.416,0,0,1-2.207-.3c-8.765-2.378-16.932-10.711-17.275-11.065-.345-.335-8.678-8.5-11.056-17.267A8.279,8.279,0,0,1,2.691,16.4a15.949,15.949,0,0,1,4.443-2.92,2.351,2.351,0,0,1,2.726.668l5.454,6.64a2.334,2.334,0,0,1-.037,3.013l-3.971,4.6a2.108,2.108,0,0,0-.283,2.348A26.722,26.722,0,0,0,16,37.34a26.722,26.722,0,0,0,6.595,4.975,2.109,2.109,0,0,0,2.348-.283l4.6-3.971a2.334,2.334,0,0,1,3.013-.037l6.639,5.454a2.351,2.351,0,0,1,.668,2.726,15.947,15.947,0,0,1-2.92,4.443A8.258,8.258,0,0,1,30.82,53.351ZM8.047,14.118a1.491,1.491,0,0,0-.588.12A15.13,15.13,0,0,0,3.247,17.01a7.457,7.457,0,0,0-2.169,7.5c2.319,8.549,10.758,16.817,10.843,16.9s8.364,8.534,16.908,10.852a7.458,7.458,0,0,0,7.5-2.169A15.125,15.125,0,0,0,39.1,45.879a1.521,1.521,0,0,0-.433-1.764l-6.639-5.454a1.51,1.51,0,0,0-1.95.024l-4.6,3.971a2.93,2.93,0,0,1-3.263.393,23.614,23.614,0,0,1-2.936-1.813,30.905,30.905,0,0,1-3.866-3.313,27.556,27.556,0,0,1-5.126-6.8,2.931,2.931,0,0,1,.393-3.263l3.971-4.6a1.51,1.51,0,0,0,.024-1.95l-5.454-6.64A1.524,1.524,0,0,0,8.047,14.118Z" transform="translate(0.013 -13.294)" fill="none" stroke="#2b2b2b" stroke-width="1"/>
  </g>
</svg>
