<svg id="Group_1312" xmlns="http://www.w3.org/2000/svg" width="108.867" height="107.417" viewBox="0 0 108.867 107.417">
  <path id="Path_12545" d="M642.83,391.306c-.832,1.9-2.322,2.526-4.34,2.484-4.036-.084-8.077-.1-12.112,0-2.74.072-4.462-1.446-4.2-4.168.036-.378.005-.763.005-1.279h-1.334q-11.263,0-22.527,0c-2.539,0-3.8-1.24-3.8-3.758q0-33,0-65.993c0-2.593,1.391-3.884,4-3.776,6.33.263,11.889,2.686,17.031,6.182,1.957,1.33,3.769,2.874,5.646,4.323.271.209.533.428.892.717.095-.993.113-1.867.27-2.716a10.308,10.308,0,0,1,20.265-.219,4.464,4.464,0,0,0,.207.577Zm-6.6-4.226v-1.314q0-29.912,0-59.825c0-.354.013-.71-.015-1.062a3.712,3.712,0,0,0-2.815-3.34c-2.513-.615-4.615,1.174-4.615,3.956q-.006,30.284,0,60.569v1.017Zm-35.04-65.628v60.209h7.6V325.593a1.128,1.128,0,0,0-.009-.421c-.129-.293-.235-.724-.468-.822C606.014,323.377,603.694,322.461,601.191,321.452Zm20.991,60.259v-1.368c0-13.744-.077-27.488.067-41.231.028-2.675-.583-4.677-2.676-6.322-1.4-1.1-2.645-2.4-4.1-3.731v52.652Z" transform="translate(-533.963 -286.378)" fill="#2B2B2B"/>
  <path id="Path_12546" d="M55.286,323.749a28.424,28.424,0,0,1,.934-2.79,10.3,10.3,0,0,1,19.7,4.015c.008.318,0,.636,0,1.227.456-.376.763-.62,1.06-.875,4.795-4.119,9.974-7.61,16.127-9.344a35.82,35.82,0,0,1,6.261-1.057c2.875-.277,4.222,1.06,4.223,3.935q0,23.965,0,47.931,0,8.874,0,17.748c0,2.666-1.221,3.872-3.9,3.872q-11.211,0-22.422,0h-1.34c0,.708.012,1.364,0,2.019a3.151,3.151,0,0,1-3.126,3.348c-4.78.078-9.562.046-14.344.018-1.623-.01-2.513-1.095-3.174-2.424Zm14.047,63.428v-1.248q0-30.019,0-60.038c0-.319.008-.638-.013-.956a3.678,3.678,0,0,0-2.813-3.332c-2.549-.618-4.621,1.2-4.621,4.073q0,30.178,0,60.357v1.144Zm27.619-65.634c-2.375.925-4.531,1.783-6.7,2.6a1.363,1.363,0,0,0-.938,1.53q.034,27.467.017,54.935v1.119h7.623Zm-14.3,60.214V329.006c-2.141,2.078-4.051,3.957-5.994,5.8a2.34,2.34,0,0,0-.738,1.874q.032,21.943.016,43.886v1.189Z" transform="translate(-55.286 -286.444)" fill="#2B2B2B"/>
  <path id="Path_12547" d="M682.509,77.063h-3.487c-2.976,0-5.951.012-8.927,0-2.2-.012-3.656-1.323-3.676-3.258-.02-1.992,1.433-3.338,3.693-3.35,3.755-.021,7.51-.006,11.265-.006h1.454c-1.166-1.175-2.141-2.119-3.071-3.106a3.25,3.25,0,0,1-.513-3.924,3.175,3.175,0,0,1,3.63-1.541,4.128,4.128,0,0,1,1.7.995c2.837,2.774,5.636,5.586,8.428,8.406a3.287,3.287,0,0,1-.016,4.984q-4.189,4.228-8.417,8.417a3.328,3.328,0,0,1-4.762.159A3.289,3.289,0,0,1,679.924,80c.887-.9,1.824-1.755,2.739-2.63Z" transform="translate(-597.789 -61.755)" fill="#2B2B2B"/>
  <path id="Path_12548" d="M172.256,70.433h1.136c3.827,0,7.654-.007,11.482.008a3.222,3.222,0,0,1,3.241,2.13,3.118,3.118,0,0,1-.686,3.444,3.529,3.529,0,0,1-2.8,1.041c-3.756-.011-7.513,0-11.269,0h-1.119l-.2.332c.993.932,2.027,1.825,2.966,2.808a3.241,3.241,0,0,1,.473,3.932,3.207,3.207,0,0,1-3.654,1.5,3.967,3.967,0,0,1-1.616-.947q-4.29-4.2-8.5-8.486a3.25,3.25,0,0,1,.016-4.9q4.189-4.231,8.417-8.422a3.3,3.3,0,1,1,4.712,4.608c-.882.911-1.836,1.753-2.758,2.626Z" transform="translate(-148.774 -61.744)" fill="#2B2B2B"/>
</svg>
