<svg xmlns="http://www.w3.org/2000/svg" width="64.746" height="63.936" viewBox="0 0 64.746 63.936">
  <g id="Group_1388" data-name="Group 1388" transform="translate(0 0)">
    <path id="Path_12597" data-name="Path 12597" d="M-809.068,494.028c.2-2.9,1.231-4.214,3.27-4.214s3.073,1.3,3.271,4.211h8.6c0-.341-.007-.689,0-1.036a3.224,3.224,0,0,1,3.227-3.176,3.22,3.22,0,0,1,3.242,3.161c.009.332,0,.665,0,1.048h8.635c0-.333-.007-.68,0-1.026a3.224,3.224,0,0,1,3.22-3.183,3.22,3.22,0,0,1,3.249,3.154c.009.332,0,.665,0,1.107.794,0,1.569-.015,2.344,0a8.7,8.7,0,0,1,1.737.131,3.126,3.126,0,0,1,2.387,2.885c.013.221.008.444.008.666q0,26.14,0,52.28c0,2.488-1.242,3.708-3.774,3.708h-57.189c-2.537,0-3.781-1.218-3.781-3.7q0-26.14,0-52.28c0-2.454,1.248-3.694,3.719-3.694h2.762a3.769,3.769,0,0,1,1.184-3.537,3.227,3.227,0,0,1,2.187-.722c1.957.073,2.908,1.339,3.134,4.212Zm41.039,12.881h-60.428v.77q0,21.14,0,42.281c0,1.4.266,1.659,1.693,1.659h57.042c1.426,0,1.693-.262,1.693-1.66q0-21.141,0-42.281Zm-60.424-2.222h60.42c0-2.5.006-4.966-.005-7.426a.918.918,0,0,0-.817-1c-1.152-.07-2.312-.022-3.494-.022,0,.425.012.78,0,1.134a3.223,3.223,0,0,1-3.24,3.093,3.224,3.224,0,0,1-3.225-3.11c-.012-.369,0-.738,0-1.1h-8.6c-.2,2.819-1.137,4.1-3.069,4.207a3.223,3.223,0,0,1-2.2-.682,3.717,3.717,0,0,1-1.238-3.527h-8.595c-.236,2.879-1.181,4.137-3.134,4.212a3.225,3.225,0,0,1-2.187-.721,3.719,3.719,0,0,1-1.187-3.494h-8.593c-.278,2.936-1.225,4.173-3.2,4.216a3.214,3.214,0,0,1-2.172-.761,3.759,3.759,0,0,1-1.138-3.49c-1.171,0-2.268-.036-3.361.015a.959.959,0,0,0-.954,1.021C-828.463,499.713-828.453,502.174-828.453,504.687Zm8.628-9.533c0-.666.01-1.332,0-2a1.083,1.083,0,0,0-1.063-1.207,1.073,1.073,0,0,0-1.088,1.181q-.02,2,0,3.995a1.085,1.085,0,0,0,1.062,1.208,1.082,1.082,0,0,0,1.09-1.181C-819.814,496.485-819.825,495.819-819.825,495.153Zm15.106.054c0-.71.015-1.421,0-2.131a1.066,1.066,0,0,0-1.073-1.128,1.057,1.057,0,0,0-1.072,1.127q-.026,2.064,0,4.128a1.061,1.061,0,0,0,1.071,1.129,1.069,1.069,0,0,0,1.074-1.128C-804.7,496.539-804.719,495.873-804.719,495.207Zm12.952-.063c0,.688-.015,1.376,0,2.064a1.066,1.066,0,0,0,1.077,1.124,1.064,1.064,0,0,0,1.069-1.132q.026-2.064,0-4.128a1.058,1.058,0,0,0-1.077-1.123,1.067,1.067,0,0,0-1.069,1.131C-791.782,493.768-791.768,494.456-791.767,495.144Zm17.263.039c0-.688.012-1.376,0-2.064a1.079,1.079,0,0,0-1.1-1.17,1.066,1.066,0,0,0-1.049,1.15q-.022,2.031,0,4.062a1.075,1.075,0,0,0,1.1,1.171,1.077,1.077,0,0,0,1.051-1.151C-774.492,496.515-774.5,495.849-774.5,495.183Z" transform="translate(830.616 -489.814)" fill="#2B2B2B"/>
    <path id="Path_12598" data-name="Path 12598" d="M-763.483,652.039q-10.223,0-20.446,0c-2.961,0-4.771-1.686-4.771-4.44q0-10.826,0-21.652c0-2.711,1.821-4.4,4.749-4.4q20.514,0,41.028,0c2.922,0,4.737,1.688,4.738,4.407q0,10.858,0,21.715c0,2.662-1.84,4.365-4.715,4.366Q-753.191,652.042-763.483,652.039Zm.042-2.033q10.26,0,20.519,0c1.686,0,2.539-.785,2.54-2.338q0-10.86,0-21.721c0-1.587-.85-2.365-2.578-2.365h-40.97c-1.724,0-2.573.781-2.574,2.369q0,10.829,0,21.657c0,1.634.832,2.4,2.612,2.4Z" transform="translate(795.815 -596.233)" fill="#2B2B2B"/>
    <path id="Path_12599" data-name="Path 12599" d="M-753.177,651.486c1.44,0,2.879,0,4.319,0,.911,0,1.267.357,1.269,1.269q.008,2.795,0,5.589c0,.911-.359,1.268-1.27,1.269q-4.319.006-8.638,0c-.911,0-1.266-.358-1.268-1.27q-.007-2.794,0-5.589c0-.912.356-1.265,1.269-1.268C-756.056,651.482-754.616,651.486-753.177,651.486Zm3.529,2.078h-7.035v3.986h7.035Z" transform="translate(771.884 -622.51)" fill="#2B2B2B"/>
    <path id="Path_12600" data-name="Path 12600" d="M-592.68,759.535v1.958h-10.083v-1.958Z" transform="translate(644.295 -711.464)" fill="#2B2B2B"/>
    <path id="Path_12601" data-name="Path 12601" d="M-752.433,723.616v1.954h-6.018v-1.954Z" transform="translate(771.538 -681.947)" fill="#2B2B2B"/>
    <path id="Path_12602" data-name="Path 12602" d="M-692.655,723.621v1.953h-6.04v-1.953Z" transform="translate(722.619 -681.951)" fill="#2B2B2B"/>
    <path id="Path_12603" data-name="Path 12603" d="M-638.726,723.52h6.02v1.955h-6.02Z" transform="translate(673.524 -681.868)" fill="#2B2B2B"/>
    <path id="Path_12604" data-name="Path 12604" d="M-572.842,723.546V725.5h-6.03v-1.956Z" transform="translate(624.525 -681.89)" fill="#2B2B2B"/>
    <path id="Path_12605" data-name="Path 12605" d="M-752.439,759.54V761.5h-6.018V759.54Z" transform="translate(771.543 -711.469)" fill="#2B2B2B"/>
    <path id="Path_12606" data-name="Path 12606" d="M-710.677,761.43v-1.956h6.018v1.956Z" transform="translate(732.427 -711.414)" fill="#2B2B2B"/>
  </g>
</svg>
