<svg id="Group_2074" data-name="Group 2074" xmlns="http://www.w3.org/2000/svg" width="40.072" height="40.072" viewBox="0 0 40.072 40.072">
  <path id="Path_12589" data-name="Path 12589" d="M-386.79,160.025a.488.488,0,0,0-.056.1,2.932,2.932,0,0,1-3.091,2.382q-5.693,0-11.385,0c-.261,0-.522,0-.783,0a2.942,2.942,0,0,1-3.056-3.06c-.009-1.265,0-2.53,0-3.8v-12.99c0-2.073.545-2.85,2.485-3.537h13.462a3.006,3.006,0,0,1,1.749,1.081,10.848,10.848,0,0,1,.677,1.423Zm-2.5-9.207q0-4.263,0-8.527c0-.557-.1-.658-.663-.659H-402c-.541,0-.654.115-.654.673q0,8.507,0,17.014c0,.57.116.685.688.685h12.008c.551,0,.667-.116.667-.66Q-389.294,155.081-389.295,150.818Z" transform="translate(426.863 -139.128)" fill="#2b2b2b"/>
  <path id="Path_12590" data-name="Path 12590" d="M-682.383,354.777c.059-.185.111-.373.177-.556a2.881,2.881,0,0,1,2.736-1.92q6.26-.028,12.52,0a2.909,2.909,0,0,1,2.938,3.09q.009,4.988,0,9.977v6.73c0,2.115-.529,2.877-2.485,3.576h-13.383a3.06,3.06,0,0,1-2.144-1.534,9.076,9.076,0,0,1-.36-.892Zm2.5,9.2q0,4.244,0,8.487c0,.614.089.7.7.7h11.969c.6,0,.7-.1.7-.707q0-8.468,0-16.936c0-.626-.1-.729-.723-.729h-11.929c-.62,0-.711.1-.711.733Q-679.879,359.754-679.879,363.978Z" transform="translate(682.383 -335.602)" fill="#2b2b2b"/>
  <path id="Path_12591" data-name="Path 12591" d="M-666.5,139.128a8.583,8.583,0,0,1,1.447.724,2.7,2.7,0,0,1,1.035,2.265c.007,2.465.018,4.929,0,7.394a2.9,2.9,0,0,1-2.974,2.975q-6.2.029-12.4,0a2.9,2.9,0,0,1-2.92-2.3,1.508,1.508,0,0,0-.071-.18v-8.453c.048-.132.1-.262.144-.395a2.833,2.833,0,0,1,1.528-1.739c.243-.115.5-.2.754-.293Zm-6.709,10.859q3.011,0,6.022,0c.546,0,.666-.121.667-.667q0-3.519,0-7.039c0-.528-.12-.648-.639-.648h-12.083c-.527,0-.64.114-.64.641q0,3.519,0,7.039c0,.567.109.674.691.675Z" transform="translate(682.383 -139.128)" fill="#2b2b2b"/>
  <path id="Path_12592" data-name="Path 12592" d="M-402.8,493.7a7.48,7.48,0,0,1-.836-.309,2.8,2.8,0,0,1-1.639-2.6c-.026-2.517-.035-5.034,0-7.551a2.889,2.889,0,0,1,3.008-2.9c3-.013,6,0,9,0,1.069,0,2.139,0,3.208,0a2.932,2.932,0,0,1,3.09,2.383.493.493,0,0,0,.056.1V491.2a9.809,9.809,0,0,1-.626,1.358,2.928,2.928,0,0,1-1.879,1.146Zm6.7-2.5h6.022c.56,0,.663-.1.664-.658q0-3.519,0-7.039c0-.543-.115-.657-.669-.657h-12.005c-.573,0-.689.115-.689.683q0,3.5,0,7c0,.566.111.671.695.671Z" transform="translate(426.979 -453.631)" fill="#2b2b2b"/>
</svg>
