<svg xmlns="http://www.w3.org/2000/svg" width="292.414" height="53.317" viewBox="0 0 292.414 53.317">
  <g id="Group_2077" data-name="Group 2077" transform="translate(-1267.576 -373.309)">
    <path id="Path_13429" data-name="Path 13429" d="M1297.233,391.576h12.225V373.309h-41.882v53.317h41.882V398.453H1290.43v9.885h6.85v6.837h-16.774V385.487h16.8Z" transform="translate(0 0)" fill="#2b2b2b"/>
    <path id="Path_13430" data-name="Path 13430" d="M1324.427,373.309h34.326v11.338h-19.815v9.176h17.513v10.7h-17.49v10.638h19.792v11.416h-34.186Z" transform="translate(3.276 0)" fill="#2b2b2b"/>
    <path id="Path_13431" data-name="Path 13431" d="M1371.235,373.316h16l9.534,20.519,9.521-20.526h16l-18.276,35.769V426.61h-14.47V409.077Z" transform="translate(5.973 0)" fill="#2b2b2b"/>
    <path id="Path_13432" data-name="Path 13432" d="M1434.6,373.309v53.3h12.2V396.935l9.145,17.509h10.638l9.187-17.509v29.678h12.161v-53.3h-15.223l-11.034,22.844-11.841-22.844Z" transform="translate(9.624 0)" fill="#2b2b2b"/>
    <g id="Group_2017" data-name="Group 2017" transform="translate(1515.835 373.309)">
      <path id="Path_13433" data-name="Path 13433" d="M1502.309,373.309V384.67h15.234v41.924h13.671V373.309Z" transform="translate(-1502.309 -373.309)" fill="#2b2b2b"/>
      <rect id="Rectangle_975" data-name="Rectangle 975" width="10.623" height="11.385" transform="translate(33.533)" fill="#2b2b2b"/>
    </g>
  </g>
</svg>
