<?xml version="1.0" encoding="UTF-8"?>
<svg xmlns="http://www.w3.org/2000/svg" xmlns:xlink="http://www.w3.org/1999/xlink" width="147pt" height="138pt" viewBox="0 0 147 138" version="1.1">
<g id="surface1">
<path style=" stroke:none;fill-rule:nonzero;fill:rgb(99.607843%,45.098039%,34.117647%);fill-opacity:1;" d="M 146.878906 67.753906 C 146.523438 68.417969 146.117188 69.054688 145.664062 69.65625 C 144.851562 70.589844 143.691406 71.148438 142.457031 71.195312 C 141.21875 71.242188 140.019531 70.777344 139.136719 69.90625 C 137.957031 68.792969 136.894531 67.566406 135.777344 66.394531 L 135.402344 66.53125 L 135.402344 67.996094 C 135.402344 86.734375 135.398438 105.472656 135.394531 124.214844 C 135.390625 130.246094 131.949219 135.191406 126.40625 137.015625 C 124.953125 137.484375 123.4375 137.726562 121.910156 137.730469 C 89.597656 137.769531 57.285156 137.773438 24.96875 137.746094 C 17.199219 137.746094 11.484375 131.988281 11.480469 124.222656 C 11.457031 105.53125 11.457031 86.839844 11.46875 68.148438 L 11.46875 66.601562 L 11.164062 66.382812 C 10.160156 67.429688 9.175781 68.492188 8.148438 69.511719 C 6.039062 71.605469 3.296875 71.738281 1.386719 69.875 C -0.558594 67.972656 -0.449219 65.160156 1.691406 63.015625 C 20.578125 44.113281 39.472656 25.222656 58.378906 6.332031 C 66.863281 -2.121094 79.980469 -2.109375 88.5 6.339844 C 99.394531 17.148438 110.214844 28.027344 121.066406 38.878906 C 128.808594 46.621094 136.542969 54.367188 144.269531 62.117188 C 145.207031 63.175781 146.078125 64.292969 146.878906 65.457031 Z M 96.382812 128.578125 L 97.867188 128.578125 C 105.707031 128.578125 113.546875 128.578125 121.386719 128.578125 C 124.695312 128.578125 126.21875 127.066406 126.21875 123.777344 C 126.222656 101.933594 126.210938 80.082031 126.183594 58.238281 C 126.148438 57.464844 125.839844 56.722656 125.3125 56.160156 C 111.082031 41.863281 96.824219 27.589844 82.542969 13.339844 C 76.988281 7.785156 69.859375 7.8125 64.285156 13.386719 C 50.050781 27.613281 35.816406 41.839844 21.582031 56.066406 C 20.949219 56.632812 20.601562 57.453125 20.628906 58.304688 C 20.65625 80.105469 20.664062 101.902344 20.652344 123.703125 C 20.652344 127.09375 22.144531 128.574219 25.550781 128.578125 C 33.394531 128.582031 41.230469 128.582031 49.070312 128.578125 L 50.488281 128.578125 L 50.488281 126.644531 C 50.488281 115.410156 50.488281 104.175781 50.488281 92.941406 C 50.503906 84.308594 56.691406 78.109375 65.296875 78.089844 C 70.601562 78.074219 75.910156 78.074219 81.214844 78.089844 C 90.300781 78.09375 96.382812 84.1875 96.386719 93.296875 C 96.390625 104.484375 96.390625 115.667969 96.386719 126.855469 Z M 59.664062 128.476562 L 87.148438 128.476562 C 87.171875 128.1875 87.199219 128 87.199219 127.8125 C 87.203125 116.058594 87.199219 104.304688 87.191406 92.550781 C 87.183594 89.371094 84.957031 87.277344 81.671875 87.265625 C 76.269531 87.253906 70.871094 87.253906 65.476562 87.265625 C 61.6875 87.273438 59.667969 89.308594 59.667969 93.128906 C 59.664062 102.6875 59.664062 112.246094 59.667969 121.800781 Z M 59.664062 128.476562 "/>
</g>
</svg>
