<svg id="Group_2139" data-name="Group 2139" xmlns="http://www.w3.org/2000/svg" width="38.669" height="42.214" viewBox="0 0 38.669 42.214">
  <g id="Group_2138" data-name="Group 2138">
    <path id="Path_13533" data-name="Path 13533" d="M774.068,966.463c.633.329,1.287.623,1.895.993a27.765,27.765,0,0,0,13.865,4.128c2.269.065,3.141.95,3.228,3.23.317,8.343-1.344,16.178-6.037,23.214a29.678,29.678,0,0,1-11.365,10.143,3.736,3.736,0,0,1-3.724.019c-7.8-4.024-12.758-10.408-15.514-18.609a39.271,39.271,0,0,1-1.895-15.271,2.625,2.625,0,0,1,2.931-2.726,27.815,27.815,0,0,0,13.986-4.046c.663-.4,1.376-.718,2.066-1.073Zm-16.919,7.89a1.8,1.8,0,0,0-.079.318c-.038.437-.083.874-.091,1.312a37.459,37.459,0,0,0,1.885,12.847c2.528,7.4,6.979,13.229,14.021,16.9a1.686,1.686,0,0,0,1.738.017,26.567,26.567,0,0,0,9.327-7.863c5.074-6.871,6.934-14.664,6.526-23.09a3.443,3.443,0,0,0-.117-.546c-.2-.021-.355-.047-.508-.05a29.455,29.455,0,0,1-15.43-4.655,1.091,1.091,0,0,0-1.354.026,28.311,28.311,0,0,1-10.5,4.117C760.791,973.994,758.983,974.133,757.149,974.352Z" transform="translate(-754.423 -966.463)" fill="#de3217"/>
  </g>
  <text id="X" transform="translate(13.099 27.894)" fill="#de3217" font-size="19" font-family="Roboto-Bold, Roboto" font-weight="700"><tspan x="0" y="0">X</tspan></text>
</svg>
