<svg xmlns="http://www.w3.org/2000/svg" width="38.669" height="42.214" viewBox="0 0 38.669 42.214">
  <g id="Group_2140" data-name="Group 2140" transform="translate(-29.901 -492.755)">
    <g id="Group_2122" data-name="Group 2122" transform="translate(29.901 492.755)">
      <path id="Path_13533" data-name="Path 13533" d="M774.068,966.463c.633.329,1.287.623,1.895.993a27.763,27.763,0,0,0,13.864,4.128c2.269.065,3.141.95,3.228,3.23.317,8.343-1.344,16.178-6.037,23.214a29.678,29.678,0,0,1-11.365,10.143,3.735,3.735,0,0,1-3.724.019c-7.8-4.024-12.758-10.408-15.514-18.609a39.27,39.27,0,0,1-1.895-15.272,2.625,2.625,0,0,1,2.93-2.726,27.814,27.814,0,0,0,13.986-4.046c.663-.4,1.376-.718,2.066-1.073Zm-16.919,7.89a1.807,1.807,0,0,0-.079.317c-.038.437-.083.874-.091,1.312a37.459,37.459,0,0,0,1.885,12.847c2.528,7.4,6.979,13.229,14.021,16.9a1.686,1.686,0,0,0,1.738.017,26.568,26.568,0,0,0,9.327-7.863c5.074-6.871,6.934-14.664,6.526-23.09a3.44,3.44,0,0,0-.117-.546c-.2-.021-.355-.047-.508-.05a29.453,29.453,0,0,1-15.43-4.655,1.091,1.091,0,0,0-1.354.026,28.306,28.306,0,0,1-10.5,4.117C760.791,973.994,758.983,974.133,757.149,974.352Z" transform="translate(-754.423 -966.463)" fill="#2cc445"/>
    </g>
  </g>
</svg>
