<svg xmlns="http://www.w3.org/2000/svg" width="40.182" height="40.209" viewBox="0 0 40.182 40.209">
  <g id="Group_1978" data-name="Group 1978" transform="translate(0)">
    <path id="Path_12607" data-name="Path 12607" d="M-1687.808,1500.116c2.288,0,4.575-.01,6.864,0a6.022,6.022,0,0,1,6,6.2,6.019,6.019,0,0,1-6.013,5.853c-4.031.02-8.063-.058-12.094.02a10.976,10.976,0,0,0-10.143,6.3,11.354,11.354,0,0,0,8.318,16.292,13.913,13.913,0,0,0,2.082.158c3.237.016,6.473,0,9.709.009a1.331,1.331,0,0,1,1.358,1.794,1.245,1.245,0,0,1-1.209.876c-3.613.007-7.231.123-10.837-.036a13.959,13.959,0,0,1-13.033-11.222,14.082,14.082,0,0,1,11.017-16.581,16.069,16.069,0,0,1,2.866-.269c3.962-.029,7.924-.007,11.885-.014a3.349,3.349,0,0,0,3.413-3.207,3.336,3.336,0,0,0-3.344-3.483c-2.553-.016-5.105,0-7.658,0l-6.194,0a1.373,1.373,0,0,1-1.546-1.333,1.36,1.36,0,0,1,1.527-1.348Q-1691.322,1500.115-1687.808,1500.116Z" transform="translate(1707.09 -1497.451)" fill="#2b2b2b"/>
    <path id="Path_12608" data-name="Path 12608" d="M-1506.423,1631.914c5.633.005,9.852,4.19,9.869,9.3a8.8,8.8,0,0,1-1.272,4.2,32.1,32.1,0,0,1-4.747,6.4c-.771.844-1.577,1.656-2.389,2.462a1.294,1.294,0,0,1-1.879.048,41.728,41.728,0,0,1-6.629-7.948,10.949,10.949,0,0,1-1.749-4.261,8.451,8.451,0,0,1,1.448-5.921A9.072,9.072,0,0,1-1506.423,1631.914Zm.506,19.579c.711-.782,1.4-1.509,2.052-2.266a28.361,28.361,0,0,0,3.925-5.548,5.359,5.359,0,0,0,.588-3.671,6.684,6.684,0,0,0-7.62-5.327c-4.086.565-7.1,5.344-4.854,9.205A41.675,41.675,0,0,0-1505.917,1651.493Z" transform="translate(1536.736 -1614.517)" fill="#2b2b2b"/>
    <path id="Path_12609" data-name="Path 12609" d="M-1704.872,1480.315c-.582-.575-1.121-1.1-1.65-1.631a1.341,1.341,0,0,1-.1-1.973,1.345,1.345,0,0,1,2,.091c.532.528,1.06,1.06,1.626,1.627.582-.589,1.133-1.158,1.7-1.714a1.279,1.279,0,0,1,1.425-.314,1.277,1.277,0,0,1,.855,1.094,1.326,1.326,0,0,1-.44,1.166c-.545.536-1.089,1.074-1.7,1.675.613.591,1.2,1.139,1.768,1.712a1.257,1.257,0,0,1,.291,1.392,1.268,1.268,0,0,1-1.05.852,1.3,1.3,0,0,1-1.177-.405c-.546-.554-1.088-1.114-1.676-1.716-.607.617-1.158,1.2-1.74,1.76a1.331,1.331,0,0,1-2.246-.629,1.3,1.3,0,0,1,.393-1.3C-1706.034,1481.455-1705.477,1480.91-1704.872,1480.315Z" transform="translate(1707.031 -1476.305)" fill="#2b2b2b"/>
    <path id="Path_12610" data-name="Path 12610" d="M-1459.391,1683.9a4.018,4.018,0,0,1-3.994,4,4.022,4.022,0,0,1-4.039-4.036,4.024,4.024,0,0,1,3.995-4A4.027,4.027,0,0,1-1459.391,1683.9Zm-4.017-1.36a1.351,1.351,0,0,0-1.337,1.33,1.344,1.344,0,0,0,1.36,1.345,1.35,1.35,0,0,0,1.314-1.349A1.344,1.344,0,0,0-1463.408,1682.543Z" transform="translate(1494.218 -1657.106)" fill="#2b2b2b"/>
  </g>
</svg>
