<svg xmlns="http://www.w3.org/2000/svg" xmlns:xlink="http://www.w3.org/1999/xlink" width="70.901" height="64.092" viewBox="0 0 70.901 64.092">
  <defs>
    <clipPath id="clip-path">
      <rect id="Rectangle_1058" data-name="Rectangle 1058" width="29.146" height="42.22" transform="translate(-1796.384 2037.806)" fill="#2b2b2b"/>
    </clipPath>
  </defs>
  <g id="Group_2176" data-name="Group 2176" transform="translate(1838.139 -2028.908)">
    <path id="Path_13546" data-name="Path 13546" d="M-1808.352,2092.993c0-.712,0-1.4,0-2.088a2.833,2.833,0,0,0-2.841-2.861q-4.583-.006-9.166,0c-2,0-4,.027-6-.009a2.882,2.882,0,0,0-2.912,2.915c.011.673,0,1.346,0,2.038-.618,0-1.218.033-1.814-.006a7.25,7.25,0,0,1-4.533-1.922,7.523,7.523,0,0,1-2.521-5.789q0-3.87,0-7.742v-32.192q0-4.35,0-8.7a7.5,7.5,0,0,1,3.037-6.211,7.031,7.031,0,0,1,4.376-1.5q6.885-.014,13.771,0c3.352,0,6.7-.03,10.055.01a7.239,7.239,0,0,1,6.047,3.239,7.464,7.464,0,0,1,1.364,4.471q-.015,8.154-.007,16.307,0,10.013,0,20.023c0,4.131.027,8.262-.006,12.392a7.41,7.41,0,0,1-4.092,6.8,6.886,6.886,0,0,1-3.35.835C-1807.4,2093-1807.858,2092.993-1808.352,2092.993Zm-10.461-40.17q6.228,0,12.456,0a2.689,2.689,0,0,0,.657-.08,2.8,2.8,0,0,0,2.1-2.8q0-3.214,0-6.427c0-2.432,0-4.864,0-7.3a2.781,2.781,0,0,0-.778-1.954,2.5,2.5,0,0,0-1.729-.848c-.724-.035-1.452-.005-2.177-.005h-12.166q-5.26,0-10.522,0a5.275,5.275,0,0,0-.794.047,2.562,2.562,0,0,0-1.608.947,3.006,3.006,0,0,0-.652,2.006c.012,1.572,0,3.144,0,4.716,0,2.92.014,5.841-.006,8.762a2.878,2.878,0,0,0,2.938,2.944C-1827,2052.8-1822.906,2052.823-1818.813,2052.823Zm12.142,26.947h0c-.534,0-1.067,0-1.6,0a1.018,1.018,0,0,0-1.056,1.046q0,1.611,0,3.223a1.021,1.021,0,0,0,1.029,1.031q1.59.007,3.178,0a1.023,1.023,0,0,0,1.07-1.06q.012-1.589,0-3.178a1.022,1.022,0,0,0-1.088-1.063C-1805.649,2079.768-1806.16,2079.77-1806.671,2079.77Zm-.024-18.183h1.555a1.018,1.018,0,0,0,1.089-1.06q.016-1.6,0-3.2a1,1,0,0,0-.978-1.036q-1.656-.023-3.311,0a1.008,1.008,0,0,0-.988,1.025q0,1.611,0,3.223a1.019,1.019,0,0,0,1.054,1.049C-1807.748,2061.589-1807.221,2061.587-1806.695,2061.587Zm.018,2.525v0h-1.577a1.032,1.032,0,0,0-1.075,1.078q0,1.566,0,3.134a1.023,1.023,0,0,0,1.08,1.089q1.555,0,3.111,0a1.02,1.02,0,0,0,1.086-1.042q.02-1.611,0-3.222a1.009,1.009,0,0,0-1.069-1.033C-1805.639,2064.111-1806.158,2064.112-1806.677,2064.112Zm-.005,13.141v0c.518,0,1.037,0,1.555,0a1.012,1.012,0,0,0,1.074-1.032c.017-1.081.015-2.163,0-3.245a1.026,1.026,0,0,0-1.057-1.033c-1.066,0-2.133,0-3.2.009a1.017,1.017,0,0,0-1.02,1.04q0,1.6,0,3.2a1.037,1.037,0,0,0,1.069,1.065Zm-24.261-15.666h1.512a1.028,1.028,0,0,0,1.14-1.142q0-1.5,0-3a1.045,1.045,0,0,0-1.151-1.16q-1.5,0-3,0a1.015,1.015,0,0,0-1.1,1.11c0,1.051.026,2.1-.012,3.154a1.065,1.065,0,0,0,1.035,1.044C-1832,2061.569-1831.47,2061.587-1830.943,2061.587Zm10.712-2.622c0-.549,0-1.1,0-1.646a.992.992,0,0,0-1.019-1.032q-1.6-.012-3.2,0a1,1,0,0,0-1.03,1.049q-.008,1.6,0,3.2a1,1,0,0,0,1.05,1.047c.6,0,1.2,0,1.8,0,.48,0,.961.008,1.442,0a.988.988,0,0,0,.955-.953C-1820.226,2060.076-1820.232,2059.52-1820.231,2058.965Zm0,15.65h.014c0-.533,0-1.067,0-1.6a1,1,0,0,0-1.073-1.068h-3.07a1.019,1.019,0,0,0-1.123,1.114q0,1.536,0,3.07a1.018,1.018,0,0,0,1.1,1.118q1.557.007,3.114,0a1,1,0,0,0,1.043-1.053C-1820.227,2075.668-1820.231,2075.142-1820.231,2074.615Zm-13.314,7.8h0c0,.526,0,1.053,0,1.579a1.013,1.013,0,0,0,1.1,1.091q1.547,0,3.092-.014a1.016,1.016,0,0,0,1.064-1.064q.008-1.569,0-3.137a1.02,1.02,0,0,0-1.115-1.1c-1.023,0-2.047,0-3.07,0a.99.99,0,0,0-1.067,1.044C-1833.549,2081.347-1833.545,2081.881-1833.545,2082.415Zm18.761-20.828h.778c.267,0,.534,0,.8,0a1.008,1.008,0,0,0,1.065-1.055q.009-1.612,0-3.224a.992.992,0,0,0-.991-1.018q-1.644-.021-3.289,0a.978.978,0,0,0-.967.967c-.01.237-.005.473-.005.71,0,.867-.007,1.734,0,2.6a.983.983,0,0,0,1.005,1.017C-1815.851,2061.591-1815.317,2061.587-1814.784,2061.587Zm-8.059,18.184c-.526,0-1.052,0-1.578,0a1,1,0,0,0-1.062,1.058q-.008,1.6,0,3.2a1.007,1.007,0,0,0,1.038,1.04q1.588.006,3.179,0a.994.994,0,0,0,1.033-1.017q.008-1.633,0-3.268a.989.989,0,0,0-1.03-1.015C-1821.79,2079.768-1822.316,2079.771-1822.843,2079.771Zm8.085,0h-.756c-.252,0-.505.015-.755,0a1.042,1.042,0,0,0-1.128,1.11c.017,1.059.024,2.12,0,3.179a1.058,1.058,0,0,0,1.018,1.018c1.075-.006,2.15,0,3.224,0a1,1,0,0,0,1.015-1q.018-1.656,0-3.313a1,1,0,0,0-1.037-.992C-1813.7,2079.769-1814.232,2079.77-1814.758,2079.771Zm-5.473-13h0c0-.541.005-1.082,0-1.622a.99.99,0,0,0-1.036-1.033q-1.567,0-3.134,0a1.01,1.01,0,0,0-1.081,1.086q0,1.578,0,3.157a1.007,1.007,0,0,0,1.067,1.054q1.566,0,3.134,0a1,1,0,0,0,1.051-1.042C-1820.228,2067.834-1820.231,2067.3-1820.231,2066.767Zm2.841,0c0,.555-.009,1.111,0,1.666a.982.982,0,0,0,1.005.973q1.6.006,3.2,0a1,1,0,0,0,1.042-1.035q.009-1.611,0-3.222a1,1,0,0,0-1.059-1.039h-3.156a.983.983,0,0,0-1.032,1.011C-1817.4,2065.672-1817.389,2066.221-1817.39,2066.769Zm-16.157,7.806v.823c0,.274,0,.549,0,.823a.99.99,0,0,0,1.022,1.026q1.6.012,3.2,0a.98.98,0,0,0,1.023-.984q.027-1.667,0-3.334a.983.983,0,0,0-.962-.978c-1.1-.011-2.193-.015-3.289,0a.978.978,0,0,0-1,1.027C-1833.551,2073.51-1833.546,2074.042-1833.547,2074.575Zm18.759,2.672v0h.8c.274,0,.548,0,.822,0a1,1,0,0,0,1.025-1.03q.014-1.634,0-3.267a1,1,0,0,0-.986-1q-1.644-.012-3.289,0a.971.971,0,0,0-.968.941q-.019,1.689,0,3.378a.975.975,0,0,0,1,.978C-1815.855,2077.253-1815.322,2077.247-1814.788,2077.247Zm-18.758-10.474c0,.541-.005,1.082,0,1.622a.987.987,0,0,0,1.01,1.013q1.578.008,3.157.006a1.028,1.028,0,0,0,1.089-1.087q.006-1.567,0-3.135a1.01,1.01,0,0,0-1.087-1.08q-1.545,0-3.09,0a1,1,0,0,0-1.076,1.06C-1833.55,2065.706-1833.546,2066.239-1833.546,2066.773Z" fill="#2b2b2b"/>
    <path id="Path_13547" data-name="Path 13547" d="M-1798.864,2084.239v-46.594c.632,0,1.253-.015,1.873.006a.708.708,0,0,1,.609.62,2.858,2.858,0,0,1,.014.333q0,5.605,0,11.21,0,6.351,0,12.7,0,6.6,0,13.191,0,3.858,0,7.718a.752.752,0,0,1-.866.848c-.534,0-1.068,0-1.6-.008C-1798.842,2084.264-1798.847,2084.255-1798.864,2084.239Z" fill="#2b2b2b"/>
    <path id="Path_13548" data-name="Path 13548" d="M-1808.969,2092.982h-19.694c0-.409-.008-.808,0-1.206a8.76,8.76,0,0,1,.075-1.415,2.161,2.161,0,0,1,2.129-1.708h3.826l11.448,0a2.174,2.174,0,0,1,2.207,2.08C-1808.941,2091.474-1808.969,2092.216-1808.969,2092.982Z" fill="#2b2b2b"/>
    <path id="Path_13549" data-name="Path 13549" d="M-1818.813,2050.94h-12.367a.921.921,0,0,1-.972-.977q0-2.07,0-4.138,0-4.755,0-9.51a.935.935,0,0,1,1.017-1.027h24.6a.926.926,0,0,1,1.061,1.061q0,3.749,0,7.5v6.061a.907.907,0,0,1-1.017,1.033l-10.943,0h-1.379Zm-5.324-9.459a7.541,7.541,0,0,1,10.624-.016l1.308-1.258a9.242,9.242,0,0,0-13.216-.01Zm9.483,1.283a5.73,5.73,0,0,0-8.272-.029l1.3,1.265a4.034,4.034,0,0,1,5.667.013.787.787,0,0,0,.065-.053C-1815.486,2043.565-1815.075,2043.17-1814.654,2042.764Zm-4.145,6.046a1.921,1.921,0,0,0,1.895-1.906,1.954,1.954,0,0,0-1.916-1.944,1.979,1.979,0,0,0-1.912,1.928A1.945,1.945,0,0,0-1818.8,2048.81Z" fill="#2b2b2b"/>
    <g id="Group_2175" data-name="Group 2175">
      <g id="Group_2174" data-name="Group 2174" clip-path="url(#clip-path)">
        <path id="Path_13550" data-name="Path 13550" d="M-1776.994,2051.074a16.891,16.891,0,0,0-9.908-8.063,16.686,16.686,0,0,0-10.622.235,16.9,16.9,0,0,0-11.214,16.252,16.886,16.886,0,0,0,11.888,15.8,16.6,16.6,0,0,0,11.882-.714,16.824,16.824,0,0,0,8.474-8.343c.139.048.259.084.375.128q.842.324,1.68.651a18.97,18.97,0,0,1-20.038,11.072,19.049,19.049,0,0,1-16.5-18.606,19.131,19.131,0,0,1,15.576-19.12,19.034,19.034,0,0,1,20.434,9.878Z" fill="#2b2b2b"/>
        <path id="Path_13551" data-name="Path 13551" d="M-1781.207,2052.8c-.992.406-1.961.8-2.924,1.2-.224.094-.281-.059-.378-.187a8.757,8.757,0,0,0-6.295-3.651,8.651,8.651,0,0,0-8.869,4.452,8.593,8.593,0,0,0,.47,9.85,9.057,9.057,0,0,0,15.173-.689c.064-.109.13-.216.214-.356.525.2,1.043.4,1.561.594s1.016.394,1.572.609a12.183,12.183,0,0,1-3.633,4.431,12.189,12.189,0,0,1-8.221,2.523,12.421,12.421,0,0,1-11.683-11.17,12.394,12.394,0,0,1,9.3-13.281A12.3,12.3,0,0,1-1781.207,2052.8Z" fill="#2b2b2b"/>
        <path id="Path_13552" data-name="Path 13552" d="M-1791.32,2058.734c6.224-2.544,12.353-5.049,18.537-7.578.051,4.937.1,9.819.153,14.769Z" fill="#2b2b2b"/>
        <path id="Path_13553" data-name="Path 13553" d="M-1789.162,2061.355a3.444,3.444,0,0,1-4.041,1.045,3.459,3.459,0,0,1-2.115-3.414Z" fill="#2b2b2b"/>
        <path id="Path_13554" data-name="Path 13554" d="M-1795.316,2058.563a3.511,3.511,0,0,1,2.191-2.66,3.489,3.489,0,0,1,3.321.4Z" fill="#2b2b2b"/>
      </g>
    </g>
  </g>
</svg>
