<svg xmlns="http://www.w3.org/2000/svg" width="410.54" height="385.037" viewBox="0 0 410.54 385.037">
  <g id="Group_1992" data-name="Group 1992" transform="translate(-3126.702 -3093.999)">
    <path id="Path_13419" data-name="Path 13419" d="M382.877,1000.529a40.038,40.038,0,0,1-3.383,5.316,12.513,12.513,0,0,1-18.245.689c-3.3-3.1-6.274-6.531-9.4-9.814l-1.052.382v4.089q0,78.564-.017,157.128c-.014,16.868-9.625,30.684-25.125,35.779a41.05,41.05,0,0,1-12.565,2q-135.483.165-270.967.056c-21.718-.017-37.69-16.1-37.713-37.809q-.087-78.364-.02-156.727V997.3l-.856-.607c-2.807,2.919-5.558,5.892-8.432,8.742-5.9,5.849-13.561,6.227-18.895,1.014-5.443-5.319-5.147-13.184.841-19.175q79.2-79.235,158.461-158.414c23.714-23.63,60.379-23.594,84.2.023,30.455,30.2,60.693,60.619,91.023,90.942q32.455,32.452,64.857,64.953c2.759,2.781,4.871,6.206,7.283,9.332ZM245.889,1170.524q32.869,0,65.738,0c9.257-.007,13.509-4.222,13.511-13.413q.014-91.593-.1-183.185a9.121,9.121,0,0,0-2.434-5.811q-59.671-59.94-119.544-119.678c-15.53-15.516-35.46-15.443-51.04.13Q92.344,908.214,32.654,967.851A8.055,8.055,0,0,0,30,974.1q.11,91.393.06,182.787c0,9.475,4.171,13.624,13.693,13.63q32.869.017,65.738,0Z" transform="translate(3154.365 2282.842)" fill="#fff"/>
    <line id="Line_64" data-name="Line 64" x2="219.58" transform="translate(3222.768 3281.558)" fill="none" stroke="#fff" stroke-linecap="round" stroke-width="20"/>
    <line id="Line_65" data-name="Line 65" x2="219.58" transform="translate(3222.768 3327.303)" fill="none" stroke="#fff" stroke-linecap="round" stroke-width="20"/>
    <line id="Line_68" data-name="Line 68" x2="219.58" transform="translate(3222.768 3418.795)" fill="none" stroke="#fff" stroke-linecap="round" stroke-width="20"/>
    <line id="Line_66" data-name="Line 66" x2="219.58" transform="translate(3222.768 3373.049)" fill="none" stroke="#fff" stroke-linecap="round" stroke-width="20"/>
  </g>
</svg>
