<svg xmlns="http://www.w3.org/2000/svg" width="40.057" height="41.776" viewBox="0 0 40.057 41.776">
  <path id="Path_13490" data-name="Path 13490" d="M73.64,45.609h.816a4.8,4.8,0,0,1,2.69,1.571c.615.634,1.271,1.228,1.9,1.848a1.376,1.376,0,0,0,1.227.4c1.022-.148,2.046-.281,3.065-.445a3.656,3.656,0,0,1,4.439,3.041c.208,1.024.384,2.056.543,3.089a1.6,1.6,0,0,0,.916,1.3c.935.467,1.855.966,2.774,1.465a3.644,3.644,0,0,1,1.633,5.033c-.449.944-.9,1.886-1.38,2.816a1.576,1.576,0,0,0,.006,1.551c.46.893.891,1.8,1.33,2.7a3.666,3.666,0,0,1-1.673,5.177c-.911.486-1.817.979-2.737,1.448a1.494,1.494,0,0,0-.851,1.163c-.163.992-.345,1.98-.508,2.972a3.661,3.661,0,0,1-4.3,3.287c-1.039-.118-2.074-.273-3.106-.442a1.535,1.535,0,0,0-1.446.444c-.749.751-1.518,1.482-2.285,2.214a3.642,3.642,0,0,1-5.291,0q-1.18-1.127-2.345-2.269a1.374,1.374,0,0,0-1.225-.41c-1.035.151-2.072.287-3.105.45a3.649,3.649,0,0,1-4.406-3.032c-.21-1.038-.385-2.083-.55-3.129a1.573,1.573,0,0,0-.9-1.264c-.922-.462-1.828-.959-2.737-1.447a3.663,3.663,0,0,1-1.656-5.122c.437-.9.863-1.815,1.329-2.7a1.617,1.617,0,0,0,.007-1.624c-.477-.915-.919-1.848-1.362-2.78a3.649,3.649,0,0,1,1.633-5.035c.931-.505,1.864-1.007,2.809-1.485a1.518,1.518,0,0,0,.867-1.2c.162-1.005.337-2.009.516-3.012a3.66,3.66,0,0,1,4.318-3.219c1.038.128,2.073.283,3.106.448a1.506,1.506,0,0,0,1.409-.443c.6-.608,1.246-1.177,1.841-1.792A4.792,4.792,0,0,1,73.64,45.609Zm9.649,13a1.346,1.346,0,0,0-1.312-1.263,1.384,1.384,0,0,0-.986.5q-7.8,7.8-15.6,15.6a2.252,2.252,0,0,0-.272.3,1.2,1.2,0,0,0,.956,1.891,1.442,1.442,0,0,0,1.085-.558q6.874-6.88,13.752-13.755c.615-.615,1.247-1.215,1.837-1.853A5.153,5.153,0,0,0,83.289,58.613Zm-4.372,9.9a4.413,4.413,0,1,0,4.358,4.488A4.42,4.42,0,0,0,78.917,68.518Zm-9.7-4.036a4.414,4.414,0,1,0-4.4-4.454A4.417,4.417,0,0,0,69.216,64.482Z" transform="translate(-54.02 -45.609)" fill="#2b2b2b"/>
</svg>
